<?xml version="1.0" encoding="utf-8"?>
<!-- Generator: Adobe Illustrator 24.3.2, SVG Export Plug-In . SVG Version: 6.00 Build 0)  -->
<svg version="1.1" id="Layer_1" xmlns="http://www.w3.org/2000/svg" xmlns:xlink="http://www.w3.org/1999/xlink" x="0px" y="0px"
	 viewBox="0 0 64 64" style="enable-background:new 0 0 64 64;" xml:space="preserve">
<style type="text/css">
	.st0{fill:#2D8CEB;}
</style>
<path class="st0" d="M16,16v9h4v0c0-2.2,1.8-4,4-4h4v19c0,2.2-1.8,4-4,4h0v4h16v-4h0c-2.2,0-4-1.8-4-4V21h4c2.2,0,4,1.8,4,4v0h4v-9
	H16z"/>
<path class="st0" d="M56,8v40c0,4.4-3.6,8-8,8H8V16c0-4.4,3.6-8,8-8H56 M60,4h-4H16C9.4,4,4,9.4,4,16v40v4h4h40c6.6,0,12-5.4,12-12
	V8V4L60,4z"/>
</svg>
